<svg width="28" height="28" viewBox="0 0 28 28" fill="none" xmlns="http://www.w3.org/2000/svg">
<path d="M6.83148 7.97955C6.56032 7.83354 6.23236 7.84084 5.96796 7.99876C5.70356 8.15669 5.54165 8.44199 5.54165 8.74996V19.8333C5.54165 20.3165 5.9334 20.7083 6.41665 20.7083C6.8999 20.7083 7.29165 20.3165 7.29165 19.8333V10.2149L13.5851 13.6037C13.8441 13.7432 14.1558 13.7432 14.4148 13.6037L20.7083 10.2149V19.8333C20.7083 20.3165 21.1001 20.7083 21.5833 20.7083C22.0666 20.7083 22.4583 20.3165 22.4583 19.8333V8.74996C22.4583 8.44199 22.2964 8.15669 22.032 7.99876C21.7676 7.84084 21.4396 7.83354 21.1685 7.97955L14 11.8395L6.83148 7.97955Z" fill="black"/>
<path fill-rule="evenodd" clip-rule="evenodd" d="M20.1957 4.34211C16.0734 3.97353 11.9265 3.97353 7.80431 4.34211L6.03408 4.50039C4.13519 4.67017 2.60094 6.12083 2.32515 8.00723C1.74415 11.9813 1.74415 16.0187 2.32515 19.9927C2.60094 21.8791 4.13519 23.3298 6.03408 23.4995L7.80431 23.6578C11.9265 24.0264 16.0734 24.0264 20.1957 23.6578L21.9659 23.4995C23.8648 23.3298 25.399 21.8791 25.6748 19.9927C26.2558 16.0187 26.2558 11.9813 25.6748 8.00723C25.399 6.12083 23.8648 4.67017 21.9659 4.50039L20.1957 4.34211ZM7.96016 6.08515C11.9787 5.72585 16.0213 5.72585 20.0398 6.08515L21.8101 6.24343C22.9022 6.34108 23.7846 7.17543 23.9432 8.26039C24.4997 12.0665 24.4997 15.9334 23.9432 19.7395C23.7846 20.8245 22.9022 21.6588 21.8101 21.7565L20.0398 21.9148C16.0213 22.2741 11.9787 22.2741 7.96016 21.9148L6.18993 21.7565C5.09779 21.6588 4.21537 20.8245 4.05675 19.7395C3.50029 15.9334 3.50029 12.0665 4.05675 8.26039C4.21537 7.17543 5.09779 6.34108 6.18993 6.24343L7.96016 6.08515Z" fill="black"/>
</svg>
